# xmcd
#
# Track frame offsets:
#	150
#	19897
#	42839
#	59754
#	80715
#	100976
#	122740
#	138450
#	153879
#	172309
#	192711
#	214193
#	234083
#
# Disc length: 3310 seconds
#
# Revision: 1
# Processed by: cddbd v1.5.2PL0 Copyright (c) Steve Scherf et al.
# Submitted via: EasyCDDAExtractor 16.0.0.1
#
DISCID=be0cec0d
DTITLE=Contino - Back Porch Dogma
DYEAR=2012
DGENRE=Blues
TTITLE0=Rotgut Run
TTITLE1=Big Tent
TTITLE2=V-8 Ford
TTITLE3=Temptation
TTITLE4=Zydeco Train
TTITLE5=Dog Days
TTITLE6=One Thing
TTITLE7=Three Cool Cats
TTITLE8=Tain't
TTITLE9=Nothin' You Can Do
TTITLE10=I Don't Want to Know
TTITLE11=Monkey
TTITLE12=Dino's
EXTD=
EXTT0=
EXTT1=
EXTT2=
EXTT3=
EXTT4=
EXTT5=
EXTT6=
EXTT7=
EXTT8=
EXTT9=
EXTT10=
EXTT11=
EXTT12=
PLAYORDER=
